#N canvas 0 0 1596 818 10;
#X obj -21 101 / 2;
#X obj 10 101 % 2;
#X floatatom -21 141 5 0 0 0 - - -;
#X obj -21 121 i;
#X obj -21 185 / 2;
#X obj -21 206 i;
#X obj 20 181 % 2;
#X floatatom -21 225 5 0 0 0 - - -;
#X obj -20 272 / 2;
#X obj 7 272 % 2;
#X obj -20 292 i;
#X floatatom -21 312 5 0 0 0 - - -;
#X obj -21 353 / 2;
#X obj 6 353 % 2;
#X obj -21 375 i;
#X floatatom -22 397 5 0 0 0 - - -;
#X obj -22 436 / 2;
#X obj 5 436 % 2;
#X obj -22 456 i;
#X floatatom -22 476 5 0 0 0 - - -;
#X obj -22 514 / 2;
#X obj 5 514 % 2;
#X obj -22 533 i;
#X floatatom -23 553 5 0 0 0 - - -;
#X obj -23 591 / 2;
#X obj 4 591 % 2;
#X obj -23 610 i;
#X floatatom -22 632 5 0 0 0 - - -;
#X obj 5 668 % 2;
#X obj -20 82 t f f;
#X obj -21 248 t f f;
#X obj -21 332 t f f;
#X obj -22 416 t f f;
#X obj -22 494 t f f;
#X obj -22 571 t f f;
#X obj -21 161 t f f;
#X text 42 54 <--- scroll;
#X obj -25 14 inlet;
#X obj 679 751 outlet;
#X obj 598 755 outlet;
#X obj 510 755 outlet;
#X obj 420 758 outlet;
#X obj 333 760 outlet;
#X obj 262 762 outlet;
#X obj 204 761 outlet;
#X obj 759 750 outlet;
#X floatatom 201 197 5 0 0 0 - - -;
#X floatatom 20 204 5 0 0 0 - - -;
#X floatatom -22 56 5 0 255 0 - - -;
#X floatatom 144 266 5 0 0 0 - - -;
#X obj 49 225 expr $f1 \; if($f1==1 \, 7 \, 0);
#X floatatom 144 343 5 0 0 0 - - -;
#X obj 45 300 expr $f1 \; if($f1==1 \, 10 \, 0);
#X floatatom 144 425 5 0 0 0 - - -;
#X obj 46 380 expr $f1 \; if($f1==1 \, 15 \, 0);
#X floatatom 147 499 5 0 0 0 - - -;
#X obj 48 460 expr $f1 \; if($f1==1 \, 20 \, 0);
#X floatatom 149 583 5 0 0 0 - - -;
#X obj 50 543 expr $f1 \; if($f1==1 \, 25 \, 0);
#X floatatom 148 654 5 0 0 0 - - -;
#X obj 47 617 expr $f1 \; if($f1==1 \, 30 \, 0);
#X floatatom 144 730 5 0 0 0 - - -;
#X obj 45 693 expr $f1 \; if($f1==1 \, 34 \, 0);
#X connect 0 0 3 0;
#X connect 1 0 46 0;
#X connect 2 0 35 0;
#X connect 3 0 2 0;
#X connect 4 0 5 0;
#X connect 5 0 7 0;
#X connect 6 0 47 0;
#X connect 7 0 30 0;
#X connect 8 0 10 0;
#X connect 9 0 52 0;
#X connect 10 0 11 0;
#X connect 11 0 31 0;
#X connect 12 0 14 0;
#X connect 13 0 54 0;
#X connect 14 0 15 0;
#X connect 15 0 32 0;
#X connect 16 0 18 0;
#X connect 17 0 56 0;
#X connect 18 0 19 0;
#X connect 19 0 33 0;
#X connect 20 0 22 0;
#X connect 21 0 58 0;
#X connect 22 0 23 0;
#X connect 23 0 34 0;
#X connect 24 0 26 0;
#X connect 25 0 60 0;
#X connect 26 0 27 0;
#X connect 27 0 28 0;
#X connect 28 0 62 0;
#X connect 29 0 0 0;
#X connect 29 1 1 0;
#X connect 30 0 8 0;
#X connect 30 1 9 0;
#X connect 31 0 12 0;
#X connect 31 1 13 0;
#X connect 32 0 16 0;
#X connect 32 1 17 0;
#X connect 33 0 20 0;
#X connect 33 1 21 0;
#X connect 34 0 24 0;
#X connect 34 1 25 0;
#X connect 35 0 4 0;
#X connect 35 1 6 0;
#X connect 37 0 48 0;
#X connect 46 0 45 0;
#X connect 47 0 50 0;
#X connect 48 0 29 0;
#X connect 49 0 38 0;
#X connect 50 1 49 0;
#X connect 51 0 39 0;
#X connect 52 1 51 0;
#X connect 53 0 40 0;
#X connect 54 1 53 0;
#X connect 55 0 41 0;
#X connect 56 1 55 0;
#X connect 57 0 42 0;
#X connect 58 1 57 0;
#X connect 59 0 43 0;
#X connect 60 1 59 0;
#X connect 61 0 44 0;
#X connect 62 1 61 0;
#X coords 0 -1 1 1 85 20 1 100 100;
